<svg width="45" height="30" viewBox="0 0 353 354" fill="none" xmlns="http://www.w3.org/2000/svg">
<path d="M135.167 90.11L127.915 1.75986L48.0847 48.2401L121.34 98.1606L135.167 90.11ZM217.833 263.89L225.085 352.24L304.915 305.76L231.66 255.839L217.833 263.89ZM117.314 91.2471L221.859 270.804L235.686 262.753L131.141 83.1964L117.314 91.2471Z" fill="#BDF645"/>
<path d="M229.69 96.8183L301.686 45.0984L220.729 0.610066L215.668 89.1127L229.69 96.8183ZM123.31 257.182L51.314 308.902L132.272 353.39L137.332 264.887L123.31 257.182ZM219.521 82.1016L119.457 264.193L133.479 271.898L233.543 89.8072L219.521 82.1016Z" fill="#BDF645"/>
<path d="M80.5843 169.351L0.444848 131.457L0.783423 223.832L80.6429 185.351L80.5843 169.351ZM272.416 184.648L352.555 222.543L352.217 130.168L272.357 168.649L272.416 184.648ZM72.643 185.381L280.416 184.619L280.357 168.619L72.5843 169.381L72.643 185.381Z" fill="#BDF645"/>
<path d="M161.718 190.573C160.481 189.843 162.031 187.217 161.291 185.986C160.551 184.755 157.544 184.958 157.479 183.523L166.11 183.132L161.718 190.573Z" fill="#BDF645"/>
<path d="M157.485 170.818C157.511 169.382 160.559 169.437 161.266 168.186C161.972 166.936 160.313 164.419 161.53 163.655L166.124 170.973L157.485 170.818Z" fill="#BDF645"/>
<path d="M180.753 197.009C179.419 197.541 178.29 194.708 176.863 194.541C175.437 194.374 173.758 196.877 172.583 196.051L177.553 188.983L180.753 197.009Z" fill="#BDF645"/>
<path d="M195.991 183.574C196.038 185.01 192.991 185.111 192.349 186.396C191.708 187.681 193.492 190.11 192.316 190.935L187.355 183.86L195.991 183.574Z" fill="#BDF645"/>
<path d="M190.931 163.764C192.111 164.584 190.37 167.087 191.017 168.37C191.664 169.652 194.678 169.673 194.637 171.109L186 170.859L190.931 163.764Z" fill="#BDF645"/>
<path d="M172.24 158.32C173.249 157.297 175.42 159.438 176.794 159.018C178.168 158.599 178.701 155.632 180.108 155.917L178.394 164.386L172.24 158.32Z" fill="#BDF645"/>
</svg>
